<?xml version="1.0" encoding="iso-8859-1"?>
<!-- Uploaded to: SVG Repo, www.svgrepo.com, Generator: SVG Repo Mixer Tools -->
<svg height="800px" width="800px" version="1.1" id="Layer_1" xmlns="http://www.w3.org/2000/svg" xmlns:xlink="http://www.w3.org/1999/xlink" 
	 viewBox="0 0 512 512" xml:space="preserve">
<path style="fill:#BADB82;" d="M325.17,208.833c7.301-12.129,11.496-104.009,11.496-119.197c0-44.548-36.112-80.648-80.66-80.648
	s-80.66,36.1-80.66,80.648c0,15.188,4.194,107.068,11.495,119.197"/>
<g>
	<path style="fill:#ABC971;" d="M227.714,121.646c0,0,18.731,19.986,65.334,12.816c46.603-7.17,9.56,74.656,9.56,74.656H201.634
		L227.714,121.646z"/>
	<path style="fill:#ABC971;" d="M269.947,10.213c-4.531-0.79-9.184-1.225-13.942-1.225c-44.548,0-80.648,36.1-80.648,80.648
		c0,15.188,4.194,29.396,11.495,41.525h27.882c-7.301-12.129-11.495-26.337-11.495-41.525
		C203.24,49.845,232.049,16.818,269.947,10.213z"/>
</g>
<path style="fill:#F97E62;" d="M230.589,209.12c7.289-12.129,11.495-26.337,11.495-41.525c0-44.548-36.112-80.648-80.66-80.648
	s-80.648,36.1-80.648,80.648c0,15.188,4.194,29.396,11.495,41.525"/>
<path style="fill:#E86B56;" d="M175.366,88.172c-4.531-0.79-9.184-1.225-13.942-1.225c-44.548,0-80.648,36.1-80.648,80.648
	c0,15.188,4.194,29.396,11.495,41.525h27.882c-7.301-12.129-11.495-26.337-11.495-41.525
	C108.659,127.804,137.468,94.777,175.366,88.172z"/>
<path style="fill:#F4C67D;" d="M419.738,209.12c7.301-12.129,11.495-26.337,11.495-41.525c0-44.548-36.112-80.648-80.66-80.648
	s-80.66,36.1-80.66,80.648c0,15.188,4.194,29.396,11.495,41.525"/>
<path style="fill:#E0B16E;" d="M364.504,88.172c-4.531-0.79-9.184-1.225-13.942-1.225c-44.548,0-80.648,36.1-80.648,80.648
	c0,15.188,4.194,29.396,11.495,41.525h27.882c-7.301-12.129-11.495-26.337-11.495-41.525
	C297.797,127.804,326.606,94.777,364.504,88.172z"/>
<path style="fill:#F2F2F2;" d="M74.748,209.118c0,100.103,81.15,181.252,181.252,181.252s181.252-81.148,181.252-181.252H74.748z"/>
<path style="fill:#E6E6E6;" d="M129.716,209.119H74.748c0,100.103,81.15,181.252,181.252,181.252c9.343,0,18.522-0.709,27.484-2.072
	C196.425,375.055,129.716,299.877,129.716,209.119z"/>
<path d="M177.006,70.928c4.662,1.666,9.789-0.765,11.454-5.426c10.164-28.458,37.308-47.577,67.546-47.577
	c30.382,0,57.566,19.246,67.643,47.892c1.297,3.685,4.757,5.99,8.454,5.99c0.987,0,1.991-0.164,2.974-0.51
	c4.669-1.643,7.122-6.759,5.48-11.429C327.959,24.058,293.98,0,256.005,0c-37.793,0-71.721,23.9-84.425,59.474
	C169.916,64.135,172.344,69.263,177.006,70.928z"/>
<path d="M84.467,193.385c4.838-1.042,7.917-5.809,6.876-10.647c-1.065-4.945-1.604-10.047-1.604-15.166
	c0-39.528,32.159-71.686,71.686-71.686c39.534,0,71.697,32.158,71.697,71.686c0,5.119-0.54,10.222-1.604,15.166
	c-1.042,4.838,2.037,9.606,6.876,10.647c0.636,0.137,1.27,0.202,1.894,0.202c4.132,0,7.847-2.875,8.753-7.078
	c1.331-6.182,2.005-12.553,2.005-18.938c0-49.411-40.204-89.61-89.622-89.61c-49.412,0-89.61,40.198-89.61,89.61
	c0,6.385,0.674,12.756,2.005,18.938C74.862,191.349,79.627,194.429,84.467,193.385z"/>
<path d="M420.814,153.114c0.967,4.721,1.457,9.586,1.457,14.459c0,5.122-0.539,10.224-1.604,15.166
	c-1.042,4.838,2.036,9.606,6.876,10.647c0.636,0.137,1.27,0.202,1.895,0.202c4.131,0,7.847-2.875,8.752-7.078
	c1.33-6.179,2.005-12.551,2.005-18.938c0-6.078-0.613-12.152-1.82-18.052c-0.992-4.849-5.731-7.982-10.578-6.983
	C422.949,143.529,419.821,148.264,420.814,153.114z"/>
<path d="M260.951,167.571c0,6.383,0.674,12.755,2.006,18.938c0.905,4.204,4.621,7.078,8.752,7.078c0.625,0,1.261-0.066,1.895-0.202
	c4.84-1.042,7.918-5.809,6.876-10.647c-1.065-4.946-1.605-10.05-1.605-15.166c0-39.528,32.163-71.686,71.697-71.686
	c24.093,0,46.442,11.999,59.785,32.095c2.736,4.123,8.299,5.248,12.423,2.509c4.123-2.738,5.247-8.3,2.509-12.424
	c-16.672-25.113-44.604-40.105-74.717-40.105C301.156,77.963,260.951,118.161,260.951,167.571z"/>
<path d="M437.253,200.13H74.748c-4.95,0-8.962,4.013-8.962,8.962c0,50.672,19.695,98.349,55.457,134.246
	c3.493,3.506,9.167,3.517,12.675,0.024c3.506-3.493,3.517-9.168,0.024-12.675c-30.274-30.389-47.837-70.1-50.004-112.633H428.06
	c-4.675,90.855-80.063,163.328-172.061,163.328c-35.879,0-70.265-10.918-99.44-31.576c-4.039-2.86-9.634-1.905-12.493,2.135
	c-2.86,4.04-1.904,9.634,2.135,12.493c32.221,22.813,70.188,34.871,109.798,34.871c104.885,0,190.215-85.33,190.215-190.215
	C446.215,204.143,442.204,200.13,437.253,200.13z"/>
<path d="M344.478,494.076h-79.515v-73.857c0-4.949-4.011-8.962-8.962-8.962c-4.951,0-8.962,4.013-8.962,8.962v73.857h-79.514
	c-4.95,0-8.962,4.013-8.962,8.962c0,4.949,4.013,8.962,8.962,8.962h176.953c4.951,0,8.962-4.013,8.962-8.962
	C353.44,498.088,349.427,494.076,344.478,494.076z"/>
</svg>