<?xml version="1.0" encoding="iso-8859-1"?>
<!-- Uploaded to: SVG Repo, www.svgrepo.com, Generator: SVG Repo Mixer Tools -->
<svg height="800px" width="800px" version="1.1" id="Layer_1" xmlns="http://www.w3.org/2000/svg" xmlns:xlink="http://www.w3.org/1999/xlink" 
	 viewBox="0 0 512 512" xml:space="preserve">
<path style="fill:#FFC033;" d="M482.814,46.859c-3.338-4.452-7.011-8.57-11.019-12.577c-4.006-4.007-8.237-7.679-12.688-10.908
	C439.073,8.237,414.809,0,389.209,0s-49.864,8.237-69.899,23.374c-4.451,3.228-8.682,6.901-12.688,10.908
	c-4.008,4.007-7.681,8.238-10.909,12.689c-15.137,20.035-23.374,44.299-23.374,69.899l38.4,86.595
	c22.261,20.257,50.421,30.386,78.47,30.386c24.598,0,49.307-7.791,69.899-23.485c4.451-3.228,8.682-6.901,12.688-10.908
	c4.008-4.007,7.681-8.125,11.019-12.577c15.139-20.035,23.264-44.41,23.264-70.01S497.953,66.894,482.814,46.859z"/>
<path style="fill:#F9A926;" d="M459.108,210.365c4.451-3.228,8.682-6.901,12.688-10.908c4.008-4.007,7.681-8.125,11.019-12.577
	c15.139-20.035,23.264-44.41,23.264-70.01s-8.125-49.976-23.264-70.01c-3.338-4.452-7.011-8.57-11.019-12.577
	c-4.006-4.007-8.237-7.679-12.688-10.908C439.073,8.237,414.809,0,389.209,0v233.85C413.807,233.85,438.515,226.059,459.108,210.365
	z"/>
<path style="fill:#FFEFD9;" d="M472.687,116.87c0,16.696-4.785,32.612-13.802,46.08c-3.116,4.563-6.679,8.904-10.685,12.911
	c-4.008,4.007-8.348,7.569-12.911,10.685c-13.913,9.238-29.942,13.913-46.08,13.913c-20.035,0-40.07-7.235-56.097-21.704
	L305.73,116.87c0-16.696,4.785-32.612,13.802-46.08c3.116-4.563,6.679-8.904,10.685-12.911c4.008-4.007,8.348-7.57,12.911-10.685
	c13.469-9.016,29.384-13.802,46.08-13.802s32.611,4.786,46.08,13.802c4.564,3.117,8.903,6.678,12.911,10.685
	c4.006,4.007,7.568,8.348,10.685,12.911C467.902,84.257,472.687,100.174,472.687,116.87z"/>
<path style="fill:#FFD9B3;" d="M472.687,116.87c0,16.696-4.785,32.612-13.802,46.08c-3.116,4.563-6.679,8.904-10.685,12.911
	c-4.008,4.007-8.348,7.569-12.911,10.685c-13.913,9.238-29.942,13.913-46.08,13.913V33.391c16.696,0,32.611,4.786,46.08,13.802
	c4.564,3.117,8.903,6.678,12.911,10.685c4.006,4.007,7.568,8.348,10.685,12.911C467.902,84.257,472.687,100.174,472.687,116.87z"/>
<path style="fill:#FFC033;" d="M482.814,186.88c-3.338,4.452-7.011,8.57-11.019,12.577c-4.006,4.007-8.237,7.68-12.688,10.908
	l-23.819-23.819L295.713,46.97c3.228-4.452,6.901-8.682,10.909-12.689c4.006-4.007,8.237-7.679,12.688-10.908l69.899,69.899
	l69.899-69.899c4.451,3.228,8.682,6.901,12.688,10.908c4.008,4.007,7.681,8.125,11.019,12.577l-23.929,23.93l-46.08,46.08
	L482.814,186.88z"/>
<path style="fill:#F9A926;" d="M435.289,186.546l23.819,23.819c4.451-3.228,8.682-6.901,12.688-10.908
	c4.008-4.007,7.681-8.125,11.019-12.577l-70.009-70.01l46.08-46.08l23.929-23.93c-3.338-4.452-7.011-8.57-11.019-12.577
	c-4.006-4.007-8.237-7.679-12.688-10.908l-69.899,69.899v47.193L435.289,186.546z"/>
<path style="fill:#D7EBFF;" d="M206.273,512c-9.223,0-16.696-7.473-16.696-16.696V317.217c0-9.223,7.473-16.696,16.696-16.696
	s16.584,7.473,16.584,16.696v178.087C222.858,504.527,215.497,512,206.273,512z"/>
<path style="fill:#BDDEFF;" d="M206.273,300.522c-0.001,0-0.003,0-0.004,0V512c0.001,0,0.003,0,0.004,0
	c9.223,0,16.584-7.473,16.584-16.696V317.217C222.858,307.995,215.497,300.522,206.273,300.522z"/>
<path style="fill:#D7EBFF;" d="M272.945,512H139.379c-9.111,0-16.584-7.473-16.584-16.696c0-9.223,7.473-16.696,16.584-16.696
	h133.565c9.334,0,16.807,7.473,16.807,16.696C289.752,504.527,282.28,512,272.945,512z"/>
<path style="fill:#BDDEFF;" d="M289.752,495.304c0-9.223-7.473-16.696-16.807-16.696h-66.676V512h66.676
	C282.28,512,289.752,504.527,289.752,495.304z"/>
<path style="fill:#D7EBFF;" d="M402.23,128.111l-47.082,51.423l-29.495,32.056c-7.457-1.67-15.139-4.23-22.93-7.903
	c-3.673-1.781-7.568-3.117-11.464-4.007c-13.468-3.228-27.492-1.447-39.29,4.452c-12.799,6.456-26.823,9.572-40.848,9.572
	s-28.049-3.117-40.848-9.572c-14.693-7.346-31.834-8.014-46.972-2.115c-1.67,0.668-3.338,1.336-4.899,2.115
	c-9.571,4.786-19.7,7.791-30.163,9.016l-34.837-38.066l-43.075-46.97c-4.451-4.787-5.677-11.91-3.005-17.92
	c2.671-6.122,8.682-10.017,15.25-10.017h367.304c6.677,0,12.688,3.896,15.359,10.017
	C407.907,116.202,406.685,123.325,402.23,128.111z"/>
<path style="fill:#BDDEFF;" d="M291.26,199.68c3.897,0.89,7.792,2.226,11.464,4.007c7.791,3.673,15.471,6.233,22.93,7.903
	l29.495-32.056l47.082-51.423c4.453-4.787,5.677-11.91,3.005-17.92c-2.671-6.122-8.682-10.017-15.359-10.017H206.269v113.401
	c1.616,0.083,3.235,0.129,4.853,0.129c14.024,0,28.049-3.117,40.848-9.572C263.769,198.233,277.793,196.452,291.26,199.68z"/>
<path style="fill:#36D9D9;" d="M355.15,179.534l-29.496,32.056l-107.186,116.87c-2.433,2.569-5.629,4.65-9.227,5.165
	c-0.968,0.189-1.97,0.289-2.972,0.289h-0.045c-4.675,0-9.127-2.003-12.243-5.454L88.242,213.148l-34.838-38.066
	c14.581,6.678,31.388,7.012,46.08,1.002c1.336-0.557,2.671-1.113,4.007-1.781c25.6-12.8,56.097-12.8,81.697,0
	c7.558,3.773,14.603,5.565,21.081,6.077c16.807,1.347,29.763-5.866,37.799-9.082c21.482-8.57,44.077-8.57,64.223-1.447
	c2.115,0.779,4.675,1.892,7.569,3.117C325.32,177.085,338.899,182.539,355.15,179.534z"/>
<path style="fill:#43BFBF;" d="M355.15,179.534l-29.496,32.056l-107.186,116.87c-2.433,2.569-5.629,4.65-9.227,5.165
	c-0.968,0.189-1.97,0.289-2.972,0.289V180.38c16.807,1.347,29.763-5.866,37.799-9.082c21.482-8.57,44.077-8.57,64.223-1.447
	c2.115,0.779,4.675,1.892,7.569,3.117C325.32,177.085,338.899,182.539,355.15,179.534z"/>
</svg>