<?xml version="1.0" encoding="iso-8859-1"?>
<!-- Uploaded to: SVG Repo, www.svgrepo.com, Generator: SVG Repo Mixer Tools -->
<svg height="800px" width="800px" version="1.1" id="Layer_1" xmlns="http://www.w3.org/2000/svg" xmlns:xlink="http://www.w3.org/1999/xlink" 
	 viewBox="0 0 512 512" xml:space="preserve">
<path style="fill:#D7EBFF;" d="M356.174,289.391c-9.217,0-16.696-7.473-16.696-16.696v-61.217c0-9.223,7.479-16.696,16.696-16.696
	c9.217,0,16.696,7.473,16.696,16.696v61.217C372.87,281.918,365.391,289.391,356.174,289.391z"/>
<path style="fill:#BDDEFF;" d="M372.87,272.696v-61.217c0-9.223-7.479-16.696-16.696-16.696v94.609
	C365.391,289.391,372.87,281.918,372.87,272.696z"/>
<path style="fill:#D7EBFF;" d="M144.696,0C135.479,0,128,7.473,128,16.696V116.87c0,9.223,7.479,16.696,16.696,16.696
	s16.696-7.473,16.696-16.696V16.696C161.391,7.473,153.913,0,144.696,0z"/>
<path style="fill:#BDDEFF;" d="M161.391,116.87V16.696C161.391,7.473,153.913,0,144.696,0v133.565
	C153.913,133.565,161.391,126.092,161.391,116.87z"/>
<path style="fill:#D7EBFF;" d="M356.174,222.609c-52.163,0-94.609-49.929-94.609-111.304S304.011,0,356.174,0
	s94.609,49.929,94.609,111.304S408.337,222.609,356.174,222.609z"/>
<path style="fill:#BDDEFF;" d="M450.783,111.304C450.783,49.929,408.337,0,356.174,0v222.609
	C408.337,222.609,450.783,172.68,450.783,111.304z"/>
<path style="fill:#FFC033;" d="M395.13,356.174v-77.913c0-6.147-4.984-11.13-11.13-11.13h-55.652c-6.146,0-11.13,4.983-11.13,11.13
	v77.913H395.13z"/>
<path style="fill:#F9A926;" d="M384,267.13h-27.826v89.043h38.957v-77.913C395.13,272.114,390.146,267.13,384,267.13z"/>
<path style="fill:#D7EBFF;" d="M144.696,283.826c-9.217,0-16.696-7.473-16.696-16.696v-61.217c0-9.223,7.479-16.696,16.696-16.696
	s16.696,7.473,16.696,16.696v61.217C161.391,276.353,153.913,283.826,144.696,283.826z"/>
<path style="fill:#BDDEFF;" d="M161.391,267.13v-61.217c0-9.223-7.479-16.696-16.696-16.696v94.609
	C153.913,283.826,161.391,276.353,161.391,267.13z"/>
<path style="fill:#D7EBFF;" d="M94.609,16.696C94.609,7.473,87.13,0,77.913,0S61.217,7.473,61.217,16.696v94.609h33.391V16.696z"/>
<path style="fill:#BDDEFF;" d="M228.174,16.696C228.174,7.473,220.695,0,211.478,0s-16.696,7.473-16.696,16.696v94.609h33.391
	V16.696z"/>
<path style="fill:#D7EBFF;" d="M194.783,111.304H94.609H61.217v27.826c0,1.879,0.159,3.718,0.283,5.565
	c2.883,43.435,39.041,77.913,83.196,77.913s80.313-34.478,83.196-77.913c0.124-1.848,0.283-3.686,0.283-5.565v-27.826H194.783z"/>
<path style="fill:#BDDEFF;" d="M144.696,111.304v111.304c44.154,0,80.313-34.478,83.196-77.913c0.124-1.848,0.283-3.686,0.283-5.565
	v-27.826h-33.391H144.696z"/>
<path style="fill:#FFC033;" d="M183.652,356.174v-77.913c0-6.147-4.984-11.13-11.13-11.13H116.87c-6.146,0-11.13,4.983-11.13,11.13
	v77.913H183.652z"/>
<path style="fill:#F9A926;" d="M172.522,267.13h-27.826v89.043h38.957v-77.913C183.652,272.114,178.668,267.13,172.522,267.13z"/>
<path style="fill:#36D9D9;" d="M105.739,322.783v150.261c0,21.515,17.441,38.957,38.957,38.957s38.957-17.441,38.957-38.957V322.783
	H105.739z"/>
<path style="fill:#43BFBF;" d="M144.696,512c21.515,0,38.957-17.441,38.957-38.957V322.783h-38.957V512z"/>
<path style="fill:#36D9D9;" d="M317.217,322.783v150.261c0,21.515,17.441,38.957,38.957,38.957
	c21.515,0,38.957-17.441,38.957-38.957V322.783H317.217z"/>
<path style="fill:#43BFBF;" d="M356.174,512c21.515,0,38.957-17.441,38.957-38.957V322.783h-38.957V512z"/>
<path style="fill:#BDDEFF;" d="M356.174,33.391c-33.75,0-61.217,34.951-61.217,77.913s27.468,77.913,61.217,77.913
	s61.217-34.951,61.217-77.913S389.924,33.391,356.174,33.391z"/>
<path style="fill:#AAC8E6;" d="M417.391,111.304c0-42.962-27.468-77.913-61.217-77.913v155.826
	C389.924,189.217,417.391,154.267,417.391,111.304z"/>
</svg>