<svg id="eOU3PlCYzDt1" xmlns="http://www.w3.org/2000/svg" xmlns:xlink="http://www.w3.org/1999/xlink" viewBox="-6.6 0 32 32" shape-rendering="geometricPrecision" text-rendering="geometricPrecision"><g transform="translate(-138.576-133.994)"><g><g><g><circle r="3.938" transform="translate(147.967 138.859)" fill="#f4bb44"/></g></g><g><g><circle r="3.938" transform="translate(143.675 144.234)" fill="#f4bb44"/></g></g><g><g><circle r="3.938" transform="translate(152.28 144.234)" fill="#f4bb44"/></g></g><g><g opacity="0.5"><g><path d="M149.466,136.421c.67367.004026,1.334809.182488,1.919.518-.869768-1.565492-2.688911-2.343728-4.421798-1.89166s-2.940028,2.019787-2.934202,3.81066c-.001284.515028.100727,1.025084.3,1.5-1.144402-.205931-2.321071.108441-3.210276.857693s-1.398583,1.855558-1.389724,3.018307c.003766,1.421314.7762,2.729364,2.019,3.419-.697498-1.214211-.692238-2.708762.01379-3.918033s2.00496-1.948517,3.40521-1.937967c.076,0,.149.011.223.015.1.007.388.045.448.053.437672.08008.859048.23214,1.247.45-.361038-.639463-.891955-1.166573-1.534-1.523-.018587-.14361-.028605-.288199-.03-.433-.000268-1.045718.415503-2.048581,1.155594-2.787358s1.74369-1.152767,2.789406-1.150642Z" fill="#fff"/></g></g><g opacity="0.35"><g><path d="M149.842,145.733c-.008884-1.399779.730831-2.697628,1.939738-3.403323s2.702745-.711673,3.917262-.015677c-.808865-1.457252-2.449673-2.244968-4.092641-1.96479s-2.92997,1.567181-3.210149,3.210149.507538,3.283776,1.96479,4.092641c-.335861-.584096-.51467-1.245241-.519-1.919Z" fill="#fff"/></g></g></g><g><g><path d="M155.092,147.546h-14.251l7.033,17.946Z" fill="#f9cb99"/></g></g><g><g><path d="M155.571,147.546h-15.219l-1.277-1.96h17.8Z" fill="#f9cb99"/></g></g></g><g><g><g><rect width="15.805" height="1" rx="0" ry="0" transform="translate(140.075 145.087)" fill="#282b24"/></g></g><g><g><path d="M147.875,165.991c-.202375-.008515-.382663-.130384-.466-.315l-7.031-17.947c-.091708-.254835.036155-.536359.288395-.63498s.537146.021522.642605.27098l6.572,16.775l6.737-16.754.94.343-.2.5-7.014,17.44c-.075483.193375-.261417.321031-.469.322Z" fill="#282b24"/></g></g><g><g><path d="M156.867,145.735l-.955-.3c.462435-1.503329-.049069-3.136182-1.286549-4.106999s-2.945155-1.078937-4.295195-.271944-2.063396,2.362295-1.794256,3.911943c.027269.158329.065018.314673.113.468l-.956.294c-.280276-.904384-.287928-1.871294-.022-2.78.586083-2.023945,2.429033-3.424846,4.536-3.448v0c1.538475-.020775,2.993969.696008,3.915397,1.928204s1.19748,2.830958.742603,4.300796Z" fill="#282b24"/></g></g><g><g><path d="M152.588,140.148l-.96-.279c.101144-.348363.152651-.709251.153-1.072-.00998-1.481548-.880134-2.822205-2.229229-3.434599s-2.931104-.384846-4.052913.582949-1.57884,2.499348-1.170858,3.92365l-.96.279c-.56883-1.961154.165375-4.067509,1.830026-5.250146s3.895298-1.182637,5.559948,0s2.398856,3.288992,1.830026,5.250146Z" fill="#282b24"/></g></g><g><g><path d="M139.089,145.736c-.553741-1.801019-.002539-3.759445,1.409299-5.007248s3.423153-1.554172,5.142478-.783313s2.828622,2.476353,2.836223,4.360561c.000169.281217-.02392.561924-.072.839-.035512.198996-.08293.395683-.142.589l-.956-.294c.112649-.367464.169944-.749657.17-1.134.000226-2.077006-1.66722-3.769392-3.744-3.8v0c-1.218971-.019366-2.37322.547298-3.103396,1.523571s-.947608,2.243602-.584604,3.407429Z" fill="#282b24"/></g></g><g><g><path d="M155.572,148.046h-15.22c-.169062.000036-.326692-.085362-.419-.227l-1.276-1.959c-.100181-.153719-.108121-.349961-.020684-.51127s.256202-.261769.439684-.26173h17.8c.184276.000095.353562.101542.440541.263999s.077548.359588-.024541.513001l-1.307,1.96c-.092285.137964-.247019.221138-.413.222Zm-14.949-1h14.677l.64-.959h-15.94Z" fill="#282b24"/></g></g><g><g><path d="M147.874,165.994v0c-.204302-.001353-.387228-.126868-.462-.317l-7.034-17.947c-.060155-.153925-.040367-.327631.052868-.464082s.24787-.218017.413132-.217918h4.6c.206262.000037.391333.126727.466.319l4.755,12.185c.046783.118206.046783.249794,0,.368l-2.32,5.763c-.077887.19084-.264904.314327-.471.311Zm-6.3-17.946l6.306,16.092l1.776-4.412-4.556-11.682Z" fill="#282b24"/></g></g><g><g><path d="M150.187,160.225c-.200489-.015858-.377505-.136915-.465-.318l-4.745-12.173c-.059731-.153812-.039732-.32719.05345-.463364s.247547-.217607.41255-.217636l4.636-.007v0c.206012-.000124.391012.126121.466.318l2.471,6.318c.046546.118596.046546.250404,0,.369l-2.364,5.861c-.076448.189575-.260592.313525-.465.313Zm-4.013-12.173l4.021,10.317l1.818-4.508-2.274-5.814Z" fill="#282b24"/></g></g><g><g><path d="M152.551,154.364c-.211581.019805-.407308-.11376-.466-.318l-2.471-6.317c-.060155-.153925-.040367-.327631.052868-.464082s.24787-.218017.413132-.217918h4.612c.20515-.000036.389505.125247.465.316l.2.5c.047578.119091.047578.251909,0,.371l-2.339,5.816c-.0764.190648-.261617.315183-.467.314Zm-1.739-6.317l1.746,4.461l1.794-4.461Z" fill="#282b24"/></g></g><g><g><path d="M147.873,165.994v0c-.204667-.000945-.388093-.126531-.463-.317l-2.192-5.6c-.045734-.117024-.045734-.246976,0-.364l4.822-12.353c.074855-.19154.259353-.317712.465-.318h4.589c.166211-.000095.321604.082411.414633.22015s.11153.312701.049367.46685l-7.219,17.948c-.075309.191486-.260237.317285-.466.317Zm-1.654-6.1l1.66,4.24l6.473-16.093h-3.507Z" fill="#282b24"/></g></g><g><g><path d="M145.682,160.4c-.205763.000285-.390691-.125514-.466-.317l-2.328-5.941c-.045995-.11732-.045995-.24768,0-.365l2.506-6.411c.075042-.190808.258967-.316464.464-.317l4.637-.018v0c.165003.000029.319368.081463.41255.217636s.113181.309552.05345.463364l-4.815,12.369c-.074534.191933-.259104.318551-.465.319Zm-1.791-6.441l1.789,4.567l4.084-10.492-3.562.013Z" fill="#282b24"/></g></g><g><g><path d="M143.353,154.459c-.205647-.000288-.390145-.12646-.465-.318l-2.309-5.9c-.046783-.118206-.046783-.249794,0-.368l.209-.519c.075996-.189629.25971-.313952.464-.314v0l4.6.018c.164908.00056.318935.082397.411697.218743s.112331.309661.052303.463257l-2.5,6.4c-.074988.191879-.259988.318124-.466.318Zm-1.772-6.394l1.772,4.522l1.769-4.528-3.532-.013Z" fill="#282b24"/></g></g></g></g></svg>
