<svg id="eT6ymcInziM1" xmlns="http://www.w3.org/2000/svg" xmlns:xlink="http://www.w3.org/1999/xlink" viewBox="0 0 441.528 441.528" shape-rendering="geometricPrecision" text-rendering="geometricPrecision"><g transform="matrix(.3 0 0 0.3 154.534951 81.431594)"><path d="M0.018,59.154l.038.063L22.519,98.125C82.562,63.543,151.12,45.263,220.785,45.263c69.709,0,138.254,18.301,198.224,52.926l22.5-38.971c-141.495-81.693-309.418-76.152-441.491-.064Z" fill="#bababa"/><path d="M178.148,283.021c0-14.06-11.438-25.498-25.497-25.498-9.077,0-17.543,4.889-22.096,12.76l-4.324,7.476l17.76,30.76h8.661c14.058,0,25.496-11.439,25.496-25.498Z" fill="#bababa"/><path d="M37.519,124.106l71.764,124.299c10.443-13.043,26.411-20.883,43.367-20.883c30.602,0,55.497,24.896,55.497,55.498c0,27.781-20.519,50.857-47.197,54.875l59.832,103.632L404.01,124.169C348.593,92.174,285.236,75.263,220.786,75.263c-64.407,0-127.778,16.89-183.267,48.843ZM159.36,162.11h-30v-40h30v40ZM267.21,278.511h-30v-40h30v40Zm3.561-172.968c30.602,0,55.498,24.896,55.498,55.498s-24.896,55.498-55.498,55.498-55.498-24.896-55.498-55.498s24.896-55.498,55.498-55.498Z" fill="#bababa"/><path d="M270.771,186.539c14.06,0,25.498-11.438,25.498-25.498s-11.438-25.498-25.498-25.498-25.498,11.438-25.498,25.498s11.438,25.498,25.498,25.498Z" fill="#bababa"/></g><g transform="matrix(.092705 0.285317-.285317 0.092705 336.092667 115.658593)"><path d="M0.018,59.154l.038.063L22.519,98.125C82.562,63.543,151.12,45.263,220.785,45.263c69.709,0,138.254,18.301,198.224,52.926l22.5-38.971c-141.495-81.693-309.418-76.152-441.491-.064Z" fill="#bababa"/><path d="M178.148,283.021c0-14.06-11.438-25.498-25.497-25.498-9.077,0-17.543,4.889-22.096,12.76l-4.324,7.476l17.76,30.76h8.661c14.058,0,25.496-11.439,25.496-25.498Z" fill="#bababa"/><path d="M37.519,124.106l71.764,124.299c10.443-13.043,26.411-20.883,43.367-20.883c30.602,0,55.497,24.896,55.497,55.498c0,27.781-20.519,50.857-47.197,54.875l59.832,103.632L404.01,124.169C348.593,92.174,285.236,75.263,220.786,75.263c-64.407,0-127.778,16.89-183.267,48.843ZM159.36,162.11h-30v-40h30v40ZM267.21,278.511h-30v-40h30v40Zm3.561-172.968c30.602,0,55.498,24.896,55.498,55.498s-24.896,55.498-55.498,55.498-55.498-24.896-55.498-55.498s24.896-55.498,55.498-55.498Z" fill="#bababa"/><path d="M270.771,186.539c14.06,0,25.498-11.438,25.498-25.498s-11.438-25.498-25.498-25.498-25.498,11.438-25.498,25.498s11.438,25.498,25.498,25.498Z" fill="#bababa"/></g><g transform="matrix(-.242705 0.176336-.176336-.242705 383.945317 334.6661)"><path d="M0.018,59.154l.038.063L22.519,98.125C82.562,63.543,151.12,45.263,220.785,45.263c69.709,0,138.254,18.301,198.224,52.926l22.5-38.971c-141.495-81.693-309.418-76.152-441.491-.064Z" fill="#ffb678"/><path d="M178.148,283.021c0-14.06-11.438-25.498-25.497-25.498-9.077,0-17.543,4.889-22.096,12.76l-4.324,7.476l17.76,30.76h8.661c14.058,0,25.496-11.439,25.496-25.498Z" fill="#79ac73"/><path d="M37.519,124.106l71.764,124.299c10.443-13.043,26.411-20.883,43.367-20.883c30.602,0,55.497,24.896,55.497,55.498c0,27.781-20.519,50.857-47.197,54.875l59.832,103.632L404.01,124.169C348.593,92.174,285.236,75.263,220.786,75.263c-64.407,0-127.778,16.89-183.267,48.843ZM159.36,162.11h-30v-40h30v40ZM267.21,278.511h-30v-40h30v40Zm3.561-172.968c30.602,0,55.498,24.896,55.498,55.498s-24.896,55.498-55.498,55.498-55.498-24.896-55.498-55.498s24.896-55.498,55.498-55.498Z" fill="#79ac73"/><path d="M270.771,186.539c14.06,0,25.498-11.438,25.498-25.498s-11.438-25.498-25.498-25.498-25.498,11.438-25.498,25.498s11.438,25.498,25.498,25.498Z" fill="#79ac73"/></g><g transform="matrix(-.242705-.176336 0.176336-.242705 190.458615 377.209443)"><path d="M0.018,59.154l.038.063L22.519,98.125C82.562,63.543,151.12,45.263,220.785,45.263c69.709,0,138.254,18.301,198.224,52.926l22.5-38.971c-141.495-81.693-309.418-76.152-441.491-.064Z" fill="#bababa"/><path d="M178.148,283.021c0-14.06-11.438-25.498-25.497-25.498-9.077,0-17.543,4.889-22.096,12.76l-4.324,7.476l17.76,30.76h8.661c14.058,0,25.496-11.439,25.496-25.498Z" fill="#bababa"/><path d="M37.519,124.106l71.764,124.299c10.443-13.043,26.411-20.883,43.367-20.883c30.602,0,55.497,24.896,55.497,55.498c0,27.781-20.519,50.857-47.197,54.875l59.832,103.632L404.01,124.169C348.593,92.174,285.236,75.263,220.786,75.263c-64.407,0-127.778,16.89-183.267,48.843ZM159.36,162.11h-30v-40h30v40ZM267.21,278.511h-30v-40h30v40Zm3.561-172.968c30.602,0,55.498,24.896,55.498,55.498s-24.896,55.498-55.498,55.498-55.498-24.896-55.498-55.498s24.896-55.498,55.498-55.498Z" fill="#bababa"/><path d="M270.771,186.539c14.06,0,25.498-11.438,25.498-25.498s-11.438-25.498-25.498-25.498-25.498,11.438-25.498,25.498s11.438,25.498,25.498,25.498Z" fill="#bababa"/></g><g transform="matrix(.092705-.285317 0.285317 0.092705 64.738582 241.635122)"><path d="M0.018,59.154l.038.063L22.519,98.125C82.562,63.543,151.12,45.263,220.785,45.263c69.709,0,138.254,18.301,198.224,52.926l22.5-38.971c-141.495-81.693-309.418-76.152-441.491-.064Z" fill="#bababa"/><path d="M178.148,283.021c0-14.06-11.438-25.498-25.497-25.498-9.077,0-17.543,4.889-22.096,12.76l-4.324,7.476l17.76,30.76h8.661c14.058,0,25.496-11.439,25.496-25.498Z" fill="#bababa"/><path d="M37.519,124.106l71.764,124.299c10.443-13.043,26.411-20.883,43.367-20.883c30.602,0,55.497,24.896,55.497,55.498c0,27.781-20.519,50.857-47.197,54.875l59.832,103.632L404.01,124.169C348.593,92.174,285.236,75.263,220.786,75.263c-64.407,0-127.778,16.89-183.267,48.843ZM159.36,162.11h-30v-40h30v40ZM267.21,278.511h-30v-40h30v40Zm3.561-172.968c30.602,0,55.498,24.896,55.498,55.498s-24.896,55.498-55.498,55.498-55.498-24.896-55.498-55.498s24.896-55.498,55.498-55.498Z" fill="#bababa"/><path d="M270.771,186.539c14.06,0,25.498-11.438,25.498-25.498s-11.438-25.498-25.498-25.498-25.498,11.438-25.498,25.498s11.438,25.498,25.498,25.498Z" fill="#bababa"/></g></svg>
